# xmcd CD database file
#
# Track frame offsets:
#	150
#	16620
#	33970
#	50697
#	72290
#	86860
#	96262
#	108645
#	122830
#	138510
#	153075
#	171275
#
# Disc length: 2407 seconds
#
# Revision: 4
# Processed by: cddbd v1.5.2PL0 Copyright (c) Steve Scherf et al.
# Submitted via: CDex 1.70beta2
#
DISCID=9e09650c
DTITLE=Tats Yamashita - Big Wave
DYEAR=1984
DGENRE=Pop
TTITLE0=The Theme Ffom Big Wave
TTITLE1=Jody
TTITLE2=Only With You
TTITLE3=Magic Ways
TTITLE4=Your Eyes
TTITLE5=I Love You ...PartⅡ
TTITLE6=Girls On The Beach
TTITLE7=Please Let Me Wonder
TTITLE8=Darlin'
TTITLE9=Guess I'm Dumb
TTITLE10=This Could Be The Night
TTITLE11=I Love You ...PartⅠ
EXTD=YEAR: 1984
EXTT0=
EXTT1=
EXTT2=
EXTT3=
EXTT4=
EXTT5=
EXTT6=
EXTT7=
EXTT8=
EXTT9=
EXTT10=
EXTT11=
PLAYORDER=
